<svg width="190" height="167" viewBox="0 0 190 167" fill="none" xmlns="http://www.w3.org/2000/svg">
    <path d="M133.5 86.5C132.154 94.049 129.488 101.216 125.5 108C134.624 118.125 144.124 127.958 154 137.5C156.167 147.333 152.333 151.167 142.5 149C132.958 139.124 123.125 129.624 113 120.5C94.0251 131.291 75.1918 131.124 56.5 120C42.0275 108.775 35.3608 93.9412 36.5 75.5C36.3367 73.1432 36.5034 70.8098 37 68.5C46.267 41.6121 65.1003 29.4454 93.5 32C121.598 39.2722 134.931 57.4388 133.5 86.5Z" fill="#FBFBFB"/>
    <path d="M78.5 39.5C109.984 39.4831 125.484 55.1497 125 86.5C118.747 110.41 103.247 121.577 78.5 120C60.009 116.176 48.8423 105.009 45 86.5C43.6232 61.733 54.7899 46.0663 78.5 39.5Z" fill="#585859"/>
    <path d="M74.5 49.5C79.0119 49.8689 80.5119 52.2022 79 56.5C67.5155 61.3255 61.5155 69.9921 61 82.5C58.6667 85.1667 56.3333 85.1667 54 82.5C52.8836 66.4695 59.717 55.4695 74.5 49.5Z" fill="#F8F8F8"/>
</svg>
